<?xml version="1.0" encoding="utf-8"?><svg xmlns="http://www.w3.org/2000/svg" xmlns:xlink="http://www.w3.org/1999/xlink"><symbol viewBox="0 0 18 18" id="call" xmlns="http://www.w3.org/2000/svg"><path fill-rule="evenodd" clip-rule="evenodd" d="M1.76 12.25l2.54-.29c.61-.07 1.21.14 1.64.57l1.84 1.84c2.83-1.44 5.15-3.75 6.59-6.59l-1.85-1.85a1.99 1.99 0 01-.57-1.64l.29-2.52C12.36.76 13.21 0 14.23 0h1.73c1.13 0 2.07.94 2 2.07-.53 8.54-7.36 15.36-15.89 15.89-1.13.07-2.07-.87-2.07-2v-1.73c-.01-1.01.75-1.86 1.76-1.98z"/></symbol><symbol viewBox="0 0 20 18" id="contacts" xmlns="http://www.w3.org/2000/svg"><path d="M10.5 9a4.5 4.5 0 100-9 4.5 4.5 0 000 9zM.017 16.612C-.113 17.342.535 18 1.339 18H18.66c.83 0 1.453-.659 1.323-1.388C19.23 12.4 15.056 10 10 10 4.943 10 .769 12.4.017 16.612z"/></symbol><symbol viewBox="0 0 98 52" id="logo" xmlns="http://www.w3.org/2000/svg"><path fill-rule="evenodd" clip-rule="evenodd" d="M36.57.593a1 1 0 00-1 1v4.274a1 1 0 001 1h36.327c10.127 0 18.08 7.797 18.08 17.89 0 .285.232.517.518.517h5.262a.517.517 0 00.517-.517c0-13.49-10.842-24.164-24.377-24.164H36.57zM7.107 25.712a.438.438 0 00-.439-.438H1.164a.438.438 0 00-.438.438c0 13.65 10.223 24.92 23.443 25.657l42.341.037a1 1 0 001.001-1v-4.58a1 1 0 00-1-1H25.626c-10.236-.028-18.52-8.543-18.52-19.114z"/><path fill-rule="evenodd" clip-rule="evenodd" d="M28.141 39.792c2.74 0 5.02-.532 7.274-1.627l.155-.145v-7.835l-.843 1.08c-1.622 1.773-3.801 2.749-6.266 2.749-4.592 0-9.204-2.968-9.204-8.64 0-4.287 3.18-8.842 9.042-8.842 1.17 0 4.014.276 6.424 2.836l.847 1.044v-7.8l-.148-.147c-2.296-1.15-4.638-1.71-7.309-1.71-4.566 0-8.131 1.203-10.97 3.674-1.8 1.549-4.802 5.02-4.802 10.863 0 4.321 1.538 7.695 4.826 10.622 3.058 2.682 6.449 3.878 10.974 3.878z"/><path d="M28.141 39.792c2.74 0 5.02-.532 7.274-1.627l.155-.145v-7.835l-.843 1.08c-1.622 1.773-3.801 2.749-6.266 2.749-4.592 0-9.204-2.968-9.204-8.64 0-4.287 3.18-8.842 9.042-8.842 1.17 0 4.014.276 6.424 2.836l.847 1.044v-7.8l-.148-.147c-2.296-1.15-4.638-1.71-7.309-1.71-4.566 0-8.131 1.203-10.97 3.674-1.8 1.549-4.802 5.02-4.802 10.863 0 4.321 1.538 7.695 4.826 10.622 3.058 2.682 6.449 3.878 10.974 3.878"/><path fill-rule="evenodd" clip-rule="evenodd" d="M47.911 17.289h1.364c1.252 0 2.678.068 3.758.804.527.376 1.411 1.248 1.411 2.831 0 1.17-.517 2.22-1.37 2.874-1.096.795-2.397.75-3.443.75h-1.72v-7.26zm3.066 12.529c3.231 0 5.76-.932 7.517-2.688 2.16-2.156 2.484-5.123 2.484-6.686 0-1.674-.397-4.937-3.057-7.3-2.18-1.911-4.507-2.389-7.789-2.389h-8.754v29.037h6.658v-9.974h2.94z"/><path d="M47.911 17.289v-.25h-.25v.25h.25zm5.122.804l.145-.204-.005-.003-.14.207zm.04 5.705l.147.203.005-.004-.152-.199zm-5.162.75h-.25v.25h.25v-.25zm10.583 2.582l-.177-.177.177.177zm-.573-13.986l.166-.187-.001-.002-.165.188zm-16.543-2.389v-.25h-.25v.25h.25zm0 29.037h-.25v.25h.25v-.25zm6.658 0v.25h.25v-.25h-.25zm0-9.974v-.25h-.25v.25h.25zm-.125-12.28h1.364v-.5h-1.364v.5zm1.364 0c1.258 0 2.609.074 3.617.761l.281-.413c-1.15-.784-2.652-.847-3.898-.847v.5zm3.612.758c.488.349 1.307 1.153 1.307 2.628h.5c0-1.691-.95-2.63-1.516-3.035l-.29.407zm1.307 2.628c0 1.096-.483 2.07-1.273 2.676l.304.397c.919-.704 1.47-1.828 1.47-3.073h-.5zm-1.268 2.672c-1.017.738-2.229.701-3.295.701v.5c1.025 0 2.416.055 3.59-.796l-.295-.405zm-3.295.701h-1.72v.5h1.72v-.5zm-1.47.25V17.29h-.5v7.258h.5zm2.816 5.52c3.28 0 5.88-.946 7.694-2.76l-.354-.354c-1.698 1.698-4.157 2.615-7.34 2.615v.5zm7.694-2.76c2.232-2.228 2.557-5.278 2.557-6.863h-.5c0 1.542-.321 4.424-2.41 6.509l.353.354zm2.557-6.863c0-1.702-.402-5.054-3.141-7.487l-.332.373c2.581 2.293 2.973 5.468 2.973 7.114h.5zm-3.142-7.488c-2.246-1.969-4.645-2.45-7.954-2.45v.5c3.255 0 5.51.472 7.624 2.325l.33-.375zm-7.954-2.45h-8.754v.5h8.754v-.5zm-9.004.25v29.036h.5V10.755h-.5zm.25 29.286h6.658v-.5h-6.658v.5zm6.908-.25v-9.974h-.5v9.974h.5zm-.25-9.724h2.94v-.5h-2.94v.5z"/><path fill-rule="evenodd" clip-rule="evenodd" d="M80.953 24.469c-1.448-1.283-3.469-2.027-5.762-2.798-1.634-.568-2.535-.882-3.135-1.429-.474-.402-.685-.839-.685-1.416 0-1.264.859-2.615 3.27-2.615 1.639 0 3.01.701 4.078 2.082l.424.548 3.516-4.475-.32-.322c-2.15-2.152-4.984-3.289-8.195-3.289-6.479 0-9.379 4.215-9.379 8.392 0 2.241.8 4.049 2.371 5.37 1.407 1.206 3.123 1.882 4.77 2.434l.185.061c1.462.483 2.973.983 3.876 1.791.628.578.908 1.205.908 2.034 0 1.9-1.496 3.177-3.723 3.177-1.76 0-4.079-.863-5.305-3.284l-.32-.635-4.371 4.046.257.365c1.395 1.974 4.541 5.286 9.946 5.286 5.96 0 10.122-3.831 10.122-9.317 0-3.138-1.376-5-2.528-6.006z"/><path d="M80.953 24.469c-1.448-1.283-3.469-2.027-5.762-2.798-1.634-.568-2.535-.882-3.135-1.429-.474-.402-.685-.839-.685-1.416 0-1.264.859-2.615 3.27-2.615 1.639 0 3.01.701 4.078 2.082l.424.548 3.516-4.475-.32-.322c-2.15-2.152-4.984-3.289-8.195-3.289-6.479 0-9.379 4.215-9.379 8.392 0 2.241.8 4.049 2.371 5.37 1.407 1.206 3.123 1.882 4.77 2.434l.185.061c1.462.483 2.973.983 3.876 1.791.628.578.908 1.205.908 2.034 0 1.9-1.496 3.177-3.723 3.177-1.76 0-4.079-.863-5.305-3.284l-.32-.635-4.371 4.046.257.365c1.395 1.974 4.541 5.286 9.946 5.286 5.96 0 10.122-3.831 10.122-9.317 0-3.138-1.376-5-2.528-6.006"/></symbol><symbol viewBox="0 0 18 16" id="menu" xmlns="http://www.w3.org/2000/svg"><path fill-rule="evenodd" clip-rule="evenodd" d="M0 1a1 1 0 011-1h16a1 1 0 110 2H1a1 1 0 01-1-1zm0 7a1 1 0 011-1h8a1 1 0 010 2H1a1 1 0 01-1-1zm1 6a1 1 0 100 2h12a1 1 0 100-2H1z"/></symbol><symbol viewBox="0 0 18 18" id="menu-search" xmlns="http://www.w3.org/2000/svg"><path fill-rule="evenodd" clip-rule="evenodd" d="M12.5 11h-.79l-.28-.27a6.5 6.5 0 001.48-5.34c-.47-2.78-2.79-5-5.59-5.34A6.505 6.505 0 00.05 7.32c.34 2.8 2.56 5.12 5.34 5.59a6.5 6.5 0 005.34-1.48l.27.28v.79l4.26 4.25c.41.41 1.07.41 1.48 0l.01-.01c.41-.41.41-1.07 0-1.48L12.5 11zm-6 0C4.01 11 2 8.99 2 6.5S4.01 2 6.5 2 11 4.01 11 6.5 8.99 11 6.5 11z"/></symbol><symbol viewBox="0 0 20 20" id="messages" xmlns="http://www.w3.org/2000/svg"><path fill-rule="evenodd" clip-rule="evenodd" d="M18 0H2C.9 0 .01.9.01 2L0 20l4-5h14c1.1 0 2-.9 2-2V2c0-1.1-.9-2-2-2zm-7 11H5c-.55 0-1-.45-1-1s.45-1 1-1h6c.55 0 1 .45 1 1s-.45 1-1 1zm4-5H5c-.55 0-1-.45-1-1s.45-1 1-1h10c.55 0 1 .45 1 1s-.45 1-1 1z"/></symbol><symbol viewBox="0 0 8 11" id="read_more" xmlns="http://www.w3.org/2000/svg"><path fill-rule="evenodd" clip-rule="evenodd" d="M6.5.5L4 3 1.5.5a.707.707 0 00-1 1l2.793 2.793a1 1 0 001.414 0L7.5 1.5a.707.707 0 00-1-1zm0 6L4 9 1.5 6.5a.707.707 0 10-1 1l2.793 2.793a1 1 0 001.414 0L7.5 7.5a.707.707 0 00-1-1z"/></symbol><symbol viewBox="0 0 20 20" id="repair" xmlns="http://www.w3.org/2000/svg"><path d="M8.258 13.458l.409-.409-1.717-1.717-.409.41-.204-.205c-.327-.368-.654-.573-.981-.532-.246 0-.45.164-.613.409-.246.409-.123.859-.082 1.145 0 .082.04.123.04.204 0 .123 0 .286-.285.327-.41.123-.94.246-1.472.532-.736.409-1.226.777-1.512 1.145C-.081 16.729 0 18.406 0 18.487c0 .123.04.205.122.246l1.104 1.144c.082.082.164.123.245.123h.123c.409 0 1.88-.082 3.597-1.431.368-.286.736-.777 1.145-1.513.286-.49.45-1.022.531-1.472.082-.286.205-.286.327-.286.041 0 .123.041.205.041.163.04.327.082.531.082.204 0 .409-.041.613-.164.245-.163.409-.368.45-.613.04-.327-.123-.654-.49-.94l-.246-.246zm8.626-8.58l1.135-.552c.042-.042.126-.085.168-.127l1.723-2.337c.126-.17.126-.425-.042-.553L18.691.12c-.126-.127-.378-.17-.546-.042L15.833 1.82a.588.588 0 00-.126.17l-.546 1.147L11 7.216 12.765 9l4.119-4.122z"/><path d="M17.853 13.045a3.748 3.748 0 00-3.759-1.041l-6.449-6.83c.08-.376.119-.709.119-1.084a4.184 4.184 0 00-1.147-2.873 3.696 3.696 0 00-3.996-1 .542.542 0 00-.238.333c0 .125.04.25.119.375l1.939 2.041c.435.458.435 1.25 0 1.708a1.129 1.129 0 01-1.622 0L.879 2.633c-.118-.084-.236-.125-.395-.084-.118 0-.237.125-.277.25-.474 1.458-.118 3.082.91 4.165.712.791 1.741 1.208 2.77 1.208.316 0 .672-.042.989-.125l6.488 6.83a4.339 4.339 0 00.99 3.957A3.668 3.668 0 0015.083 20c.434 0 .83-.083 1.265-.208a.491.491 0 00.277-.292.346.346 0 00-.119-.375l-1.938-2.04a1.332 1.332 0 01-.356-.875c0-.333.119-.625.356-.875a1.11 1.11 0 011.662 0l1.938 2.041a.617.617 0 00.356.125c.119-.042.238-.125.277-.25A4.92 4.92 0 0019 15.918c0-1.082-.396-2.124-1.147-2.873z"/></symbol><symbol viewBox="0 0 16 20" id="search" xmlns="http://www.w3.org/2000/svg"><path fill-rule="evenodd" clip-rule="evenodd" d="M0 1a1 1 0 011-1h14a1 1 0 011 1v17.5a1.5 1.5 0 00-1.5 1.5h-1a1.5 1.5 0 00-3 0h-1a1.5 1.5 0 00-3 0h-1a1.5 1.5 0 00-3 0h-1A1.5 1.5 0 000 18.5V1zm9.416 10.788a4.236 4.236 0 01-3.086.595c-1.803-.336-3.24-1.85-3.47-3.672a4.318 4.318 0 014.994-4.83c1.802.287 3.25 1.763 3.547 3.556a4.248 4.248 0 01-.614 2.99l2.11 2.1a.97.97 0 01-1.37 1.37l-2.11-2.109zm-4.71-3.73a2.354 2.354 0 114.707.003 2.354 2.354 0 01-4.707-.002z"/></symbol></svg>